<svg width="62" height="89" viewBox="0 0 62 89" fill="none" xmlns="http://www.w3.org/2000/svg">
<path d="M0 16.6513C0 7.45514 7.47022 0 16.6852 0H45.3148C54.5298 0 62 7.45514 62 16.6513C62 22.4746 59.0048 27.5997 54.4679 30.5758C59.0048 33.5521 62 38.6771 62 44.5004C62 53.6967 54.5298 61.1519 45.3148 61.1519H44.9525C40.6325 61.1519 36.6959 59.5134 33.7327 56.8251V72.1677C33.7327 81.4866 26.0672 89 16.7751 89C7.58309 89 0 81.5676 0 72.3485C0 66.5256 2.99502 61.4008 7.53154 58.4245C2.99467 55.4482 0 50.3232 0 44.5004C0 38.6771 2.9952 33.5521 7.53188 30.5758C2.99537 27.5997 0 22.4746 0 16.6513ZM28.2673 33.3032H16.6852C10.4886 33.3032 5.46541 38.3164 5.46541 44.5004C5.46541 50.6605 10.4499 55.6587 16.6134 55.6973L16.6852 55.6971H28.2673V33.3032ZM33.7327 44.5004C33.7327 50.6843 38.7559 55.6975 44.9525 55.6975H45.3148C51.5114 55.6975 56.5346 50.6843 56.5346 44.5004C56.5346 38.3164 51.5114 33.3032 45.3148 33.3032H44.9525C38.7559 33.3032 33.7327 38.3164 33.7327 44.5004ZM16.6852 61.1519L16.6134 61.1517C10.4499 61.1901 5.46541 66.1884 5.46541 72.3485C5.46541 78.5098 10.5558 83.5456 16.7751 83.5456C23.0947 83.5456 28.2673 78.4288 28.2673 72.1677V61.1519H16.6852ZM16.6852 5.45438C10.4886 5.45438 5.46541 10.4676 5.46541 16.6513C5.46541 22.8355 10.4888 27.8485 16.6852 27.8485H28.2673V5.45421H16.6852V5.45438ZM33.7327 27.8485H45.3148C51.5114 27.8485 56.5346 22.8355 56.5346 16.6513C56.5346 10.4674 51.5114 5.45438 45.3148 5.45438H33.7327V27.8485Z" fill="#237992"/>
</svg>
